<svg xmlns="http://www.w3.org/2000/svg" width="1024" height="1024" viewBox="0 0 1024 1024">
  <defs>
    <linearGradient id="surface" x1="160" y1="112" x2="864" y2="920" gradientUnits="userSpaceOnUse">
      <stop stop-color="#347A6B"/>
      <stop offset="1" stop-color="#245A51"/>
    </linearGradient>
    <filter id="shadow" x="120" y="180" width="784" height="656" filterUnits="userSpaceOnUse">
      <feDropShadow dx="0" dy="28" stdDeviation="28" flood-color="#173D37" flood-opacity=".34"/>
    </filter>
  </defs>
  <rect x="64" y="64" width="896" height="896" rx="218" fill="url(#surface)"/>
  <path d="M176 508c0-175 106-312 274-348 42-9 84-11 124-5 155 23 274 158 274 321 0 176-126 326-298 351-183 27-349-81-371-249-3-23-4-46-3-70Z" fill="#2C6A5F" opacity=".55"/>
  <g filter="url(#shadow)">
    <path d="M226 300c0-25 20-45 45-45h73c73 0 131 25 168 68v436c-42-39-99-58-168-58h-73c-25 0-45-20-45-45V300Z" fill="#F7F2E8"/>
    <path d="M798 300c0-25-20-45-45-45h-73c-73 0-131 25-168 68v436c42-39 99-58 168-58h73c25 0 45-20 45-45V300Z" fill="#FFFDF7"/>
    <path d="M512 323v436" stroke="#D6CFC1" stroke-width="18" stroke-linecap="round"/>
    <path d="M294 389h133M294 461h151M294 533h116M598 471h132M598 543h104M598 615h132" stroke="#8C9B94" stroke-width="23" stroke-linecap="round"/>
  </g>
  <path d="m667 316 18 47 47 18-47 18-18 47-18-47-47-18 47-18 18-47Z" fill="#E1B85A"/>
  <circle cx="752" cy="463" r="13" fill="#E1B85A"/>
</svg>
